<?xml version="1.0" encoding="utf-8"?>
<!-- Generator: Adobe Illustrator 16.0.0, SVG Export Plug-In . SVG Version: 6.00 Build 0)  -->
<!DOCTYPE svg PUBLIC "-//W3C//DTD SVG 1.1//EN" "http://www.w3.org/Graphics/SVG/1.1/DTD/svg11.dtd">
<svg version="1.1" id="Layer_1" xmlns="http://www.w3.org/2000/svg" xmlns:xlink="http://www.w3.org/1999/xlink" x="0px" y="0px"
	 width="311.81px" height="141.73px" viewBox="0 0 311.81 141.73" style="enable-background:new 0 0 311.81 141.73;"
	 xml:space="preserve">
<g>
	<path style="fill:#FFFFFF;" d="M49.599,0.062h-8.757c-0.417,0-0.854,0.125-1.313,0.375c-0.458,0.25-0.814,0.542-1.063,0.874
		L26.369,18.917c-0.21,0.334-0.483,0.5-0.819,0.5c-0.336,0-0.63-0.166-0.883-0.5L12.57,1.31c-0.207-0.332-0.542-0.624-1.001-0.874
		c-0.457-0.25-0.896-0.375-1.312-0.375H1.502c-0.417,0-0.772,0.146-1.063,0.437C0.145,0.791,0,1.145,0,1.56v42.645
		c0,0.417,0.145,0.771,0.438,1.062c0.292,0.292,0.646,0.438,1.064,0.438h9.442c0.417,0,0.771-0.146,1.063-0.438
		c0.292-0.291,0.438-0.645,0.438-1.062V24.1c0-0.415,0.189-0.645,0.565-0.687c0.38-0.042,0.674,0.104,0.885,0.437l10.583,16.92
		c0.252,0.333,0.61,0.499,1.073,0.499c0.461,0,0.798-0.166,1.007-0.499l10.585-16.92c0.25-0.333,0.566-0.479,0.944-0.437
		c0.377,0.042,0.567,0.271,0.567,0.687v20.105c0,0.417,0.145,0.771,0.437,1.062c0.292,0.292,0.646,0.438,1.064,0.438h9.443
		c0.416,0,0.771-0.146,1.062-0.438c0.292-0.291,0.438-0.645,0.438-1.062V1.56c0-0.416-0.146-0.77-0.438-1.062
		C50.369,0.208,50.015,0.062,49.599,0.062z"/>
	<path style="fill:#FFFFFF;" d="M93.556,0.062h-9.443c-0.417,0-0.773,0.146-1.064,0.437c-0.292,0.292-0.437,0.646-0.437,1.062
		v25.287c0,1.624-0.264,2.966-0.79,4.027c-0.527,1.062-1.167,1.895-1.923,2.498c-0.758,0.604-1.578,1.031-2.463,1.28
		c-0.883,0.25-1.683,0.375-2.398,0.375c-0.716,0-1.514-0.125-2.398-0.375c-0.884-0.249-1.716-0.676-2.494-1.28
		c-0.777-0.603-1.43-1.436-1.957-2.498c-0.527-1.062-0.788-2.403-0.788-4.027V1.56c0-0.416-0.147-0.77-0.438-1.062
		c-0.29-0.291-0.646-0.437-1.062-0.437h-9.445c-0.417,0-0.771,0.146-1.063,0.437c-0.291,0.292-0.436,0.646-0.436,1.062v25.287
		c0,2.956,0.48,5.641,1.442,8.055c0.962,2.415,2.322,4.476,4.08,6.181c1.756,1.707,3.871,3.029,6.338,3.965
		c2.468,0.937,5.207,1.405,8.221,1.405c3.012,0,5.752-0.469,8.222-1.405c2.467-0.936,4.579-2.258,6.337-3.965
		c1.757-1.706,3.105-3.767,4.047-6.181c0.94-2.414,1.413-5.099,1.413-8.055V1.56c0-0.416-0.147-0.77-0.439-1.062
		C94.326,0.208,93.972,0.062,93.556,0.062z"/>
	<path style="fill:#FFFFFF;" d="M75.706,78.441c2.257,1.456,4.496,2.599,6.713,3.429c2.217,0.832,4.287,1.247,6.211,1.247
		c1.84,0,3.24-0.26,4.203-0.78c0.963-0.518,1.443-1.297,1.443-2.337c0-0.539-0.21-0.966-0.627-1.276
		c-0.419-0.313-0.973-0.571-1.663-0.779c-0.69-0.207-1.496-0.374-2.416-0.499c-0.919-0.124-1.861-0.291-2.822-0.5
		c-0.92-0.165-1.998-0.362-3.231-0.59c-1.234-0.229-2.499-0.562-3.797-0.999c-1.296-0.436-2.583-0.985-3.857-1.65
		c-1.276-0.665-2.416-1.517-3.42-2.557c-1.003-1.039-1.81-2.273-2.415-3.708c-0.608-1.433-0.91-3.125-0.91-5.08
		c0-2.866,0.564-5.235,1.694-7.104c1.128-1.87,2.562-3.355,4.297-4.457c1.735-1.1,3.672-1.87,5.803-2.307
		c2.135-0.436,4.206-0.654,6.214-0.654c3.512,0,6.659,0.509,9.44,1.527c2.782,1.019,5.45,2.504,8.001,4.457
		c0.334,0.291,0.521,0.645,0.565,1.059c0.042,0.416-0.063,0.79-0.315,1.123l-4.894,6.918c-0.25,0.333-0.585,0.541-1.003,0.624
		c-0.42,0.083-0.796,0-1.13-0.25c-2.132-1.329-4.121-2.274-5.96-2.836c-1.842-0.561-3.535-0.841-5.082-0.841
		c-0.461,0-0.994,0.01-1.6,0.031c-0.606,0.021-1.183,0.104-1.727,0.25s-0.993,0.384-1.348,0.717
		c-0.355,0.333-0.533,0.789-0.533,1.371c0,0.583,0.438,1.102,1.317,1.559c0.879,0.458,1.883,0.853,3.013,1.184
		c1.129,0.333,2.216,0.592,3.262,0.779c1.046,0.187,1.715,0.302,2.007,0.342c1.504,0.292,3.159,0.719,4.957,1.279
		c1.797,0.561,3.481,1.393,5.05,2.493c1.568,1.101,2.886,2.535,3.954,4.299c1.065,1.767,1.6,3.98,1.6,6.638
		c0,2.493-0.44,4.644-1.318,6.452c-0.878,1.808-2.103,3.294-3.672,4.455c-1.568,1.165-3.45,2.027-5.645,2.588
		c-2.197,0.562-4.633,0.841-7.309,0.841c-2.176,0-4.205-0.177-6.088-0.53c-1.881-0.352-3.638-0.84-5.27-1.465
		c-1.632-0.623-3.147-1.359-4.548-2.21c-1.402-0.853-2.688-1.757-3.859-2.713c-0.336-0.25-0.524-0.593-0.564-1.028
		c-0.042-0.437,0.062-0.819,0.313-1.153l4.831-6.918c0.25-0.332,0.585-0.541,1.004-0.624C74.993,78.172,75.369,78.236,75.706,78.441
		z"/>
	<path style="fill:#FFFFFF;" d="M150.147,71.275c0-3.241,0.627-6.296,1.882-9.162c1.254-2.867,2.949-5.37,5.082-7.511
		c2.134-2.139,4.645-3.833,7.528-5.08c2.888-1.247,5.96-1.87,9.223-1.87c3.267,0,6.34,0.623,9.226,1.87
		c2.884,1.247,5.404,2.94,7.56,5.08c2.153,2.141,3.858,4.644,5.113,7.511c1.256,2.866,1.881,5.921,1.881,9.162
		c0,3.241-0.625,6.295-1.881,9.163c-1.255,2.866-2.96,5.369-5.113,7.51c-2.155,2.141-4.676,3.834-7.56,5.078
		c-2.886,1.247-5.959,1.871-9.226,1.871c-3.263,0-6.335-0.624-9.223-1.871c-2.884-1.244-5.395-2.938-7.528-5.078
		c-2.133-2.141-3.828-4.644-5.082-7.51C150.774,77.57,150.147,74.516,150.147,71.275z M162.571,71.275
		c0,1.58,0.291,3.076,0.879,4.487c0.584,1.414,1.389,2.66,2.412,3.74c1.027,1.081,2.229,1.943,3.609,2.587
		c1.378,0.645,2.844,0.965,4.391,0.965c1.548,0,3.014-0.32,4.394-0.965c1.381-0.644,2.594-1.506,3.64-2.587
		c1.043-1.08,1.858-2.326,2.445-3.74c0.586-1.411,0.878-2.907,0.878-4.487c0-1.537-0.292-3.022-0.878-4.456
		c-0.587-1.434-1.402-2.681-2.445-3.741c-1.046-1.059-2.259-1.911-3.64-2.555c-1.38-0.644-2.846-0.966-4.394-0.966
		c-1.547,0-3.013,0.323-4.391,0.966c-1.381,0.645-2.582,1.497-3.609,2.555c-1.023,1.06-1.828,2.307-2.412,3.741
		C162.862,68.252,162.571,69.738,162.571,71.275z"/>
	<g>
		<path style="fill:#FFFFFF;" d="M59.626,128.937c0.201-0.358,0.24-0.706,0.121-1.043c-0.121-0.338-0.36-0.588-0.721-0.747
			l-8.524-3.339c-0.4-0.158-0.791-0.158-1.171,0c-0.381,0.16-0.67,0.397-0.871,0.717c-1.041,1.669-2.452,3.031-4.231,4.083
			c-1.783,1.055-3.772,1.581-5.974,1.581c-1.522,0-2.952-0.319-4.292-0.956c-1.341-0.638-2.511-1.476-3.512-2.511
			c-1-1.035-1.781-2.243-2.341-3.618c-0.562-1.375-0.841-2.82-0.841-4.336c0-1.474,0.279-2.908,0.841-4.305
			c0.56-1.394,1.341-2.62,2.341-3.676c1-1.057,2.17-1.903,3.512-2.541c1.34-0.637,2.771-0.956,4.292-0.956
			c2.321,0,4.301,0.485,5.943,1.461c1.64,0.974,3.041,2.375,4.202,4.203c0.2,0.319,0.499,0.558,0.899,0.717
			c0.401,0.158,0.802,0.158,1.203,0l8.524-3.34c0.36-0.16,0.6-0.419,0.721-0.776c0.12-0.356,0.08-0.694-0.121-1.014
			c-1.161-1.827-2.433-3.508-3.812-5.039c-1.38-1.529-2.932-2.832-4.653-3.905c-1.719-1.074-3.641-1.909-5.762-2.506
			c-2.122-0.597-4.502-0.895-7.144-0.895c-3.202,0-6.204,0.597-9.005,1.789c-2.801,1.194-5.253,2.803-7.354,4.831
			c-2.101,2.028-3.752,4.413-4.953,7.156c-1.201,2.744-1.801,5.666-1.801,8.767c0,3.102,0.601,6.022,1.801,8.766
			c1.2,2.744,2.852,5.13,4.953,7.155c2.101,2.028,4.552,3.639,7.354,4.831c2.801,1.193,5.803,1.79,9.005,1.79
			c2.56,0,4.901-0.298,7.024-0.891c2.12-0.592,4.052-1.423,5.793-2.49c1.74-1.068,3.311-2.363,4.712-3.887
			C57.185,132.491,58.465,130.799,59.626,128.937z"/>
		<path style="fill:#FFFFFF;" d="M134.256,96.853h-30.555c-0.4,0-0.741,0.14-1.02,0.417c-0.28,0.279-0.421,0.617-0.421,1.015v38.1
			L85.766,98.225c-0.16-0.357-0.433-0.665-0.811-0.926c-0.381-0.258-0.772-0.386-1.171-0.386h-8.405c-0.44,0-0.851,0.128-1.23,0.386
			c-0.381,0.261-0.651,0.568-0.81,0.926L55.93,138.598c-0.161,0.319-0.219,0.596-0.18,0.834s0.129,0.439,0.269,0.597
			c0.141,0.16,0.322,0.278,0.541,0.357c0.221,0.08,0.431,0.12,0.63,0.12h10.325c0.401,0,0.792-0.129,1.172-0.389
			c0.38-0.257,0.65-0.565,0.81-0.924l1.681-3.577c0.16-0.358,0.43-0.665,0.81-0.925c0.38-0.259,0.79-0.389,1.232-0.389h12.666
			c0.4,0,0.789,0.13,1.171,0.389c0.379,0.26,0.668,0.566,0.87,0.925l1.621,3.577c0.2,0.358,0.49,0.667,0.871,0.924
			c0.38,0.26,0.79,0.389,1.231,0.389h10.266c0.409,0,0.724-0.091,0.961-0.256c0.239,0.17,0.514,0.256,0.825,0.256h30.555
			c0.401,0,0.741-0.139,1.021-0.417c0.282-0.279,0.421-0.616,0.421-1.015v-8.229c0-0.397-0.14-0.734-0.421-1.015
			c-0.28-0.276-0.62-0.417-1.021-0.417h-18.669c-0.401,0-0.741-0.139-1.021-0.417c-0.282-0.278-0.42-0.616-0.42-1.015v-2.266
			c0-0.396,0.138-0.735,0.42-1.013c0.279-0.278,0.62-0.418,1.021-0.418h16.269c0.4,0,0.741-0.139,1.022-0.418
			c0.278-0.277,0.417-0.616,0.417-1.015v-8.228c0-0.397-0.14-0.736-0.417-1.015c-0.282-0.278-0.623-0.417-1.022-0.417h-16.269
			c-0.401,0-0.741-0.14-1.021-0.418c-0.282-0.277-0.42-0.615-0.42-1.014v-2.504c0-0.397,0.138-0.735,0.42-1.015
			c0.279-0.277,0.62-0.418,1.021-0.418h18.669c0.401,0,0.741-0.138,1.021-0.417c0.282-0.277,0.421-0.616,0.421-1.015v-8.109
			c0-0.397-0.14-0.735-0.421-1.015C134.997,96.992,134.657,96.853,134.256,96.853z M83.095,123.777
			c-0.18,0.259-0.473,0.388-0.871,0.388h-5.343c-0.442,0-0.741-0.129-0.9-0.388c-0.161-0.257-0.161-0.565,0-0.925l3.001-7.214
			c0.159-0.359,0.34-0.537,0.54-0.537c0.2,0,0.379,0.178,0.541,0.537c0.48,1.153,0.999,2.396,1.562,3.728
			c0.56,1.331,1.041,2.494,1.439,3.486C83.263,123.212,83.273,123.521,83.095,123.777z"/>
		<path style="fill:#FFFFFF;" d="M171.705,107.408c0.26-0.277,0.391-0.616,0.391-1.015v-8.109c0-0.397-0.131-0.735-0.391-1.015
			c-0.261-0.277-0.611-0.417-1.052-0.417h-31.695c-0.401,0-0.742,0.14-1.022,0.417c-0.279,0.279-0.419,0.617-0.419,1.015v8.109
			c0,0.398,0.14,0.737,0.419,1.015c0.28,0.279,0.621,0.417,1.022,0.417h8.522c0.441,0,0.792,0.141,1.052,0.418
			c0.261,0.279,0.389,0.617,0.389,1.015v29.816c0,0.398,0.142,0.735,0.422,1.015c0.279,0.278,0.62,0.417,1.019,0.417h9.004
			c0.442,0,0.79-0.139,1.052-0.417c0.26-0.279,0.39-0.616,0.39-1.015v-29.816c0-0.397,0.142-0.735,0.42-1.015
			c0.281-0.277,0.62-0.418,1.021-0.418h8.404C171.094,107.825,171.444,107.688,171.705,107.408z"/>
		<path style="fill:#FFFFFF;" d="M249.058,96.853h-8.884c-0.397,0-0.739,0.14-1.021,0.417c-0.279,0.279-0.417,0.617-0.417,1.015
			v21.35c0,0.398-0.132,0.617-0.392,0.655c-0.261,0.04-0.512-0.098-0.75-0.417l-15.608-21.887c-0.241-0.317-0.581-0.586-1.021-0.805
			c-0.439-0.218-0.859-0.328-1.26-0.328h-9.005c-0.399,0-0.741,0.14-1.021,0.417c-0.279,0.279-0.42,0.617-0.42,1.015v36.083
			l-15.624-36.143c-0.159-0.357-0.432-0.665-0.81-0.926c-0.384-0.258-0.772-0.386-1.17-0.386h-8.406
			c-0.44,0-0.852,0.128-1.231,0.386c-0.38,0.261-0.649,0.568-0.811,0.926l-17.408,40.373c-0.161,0.319-0.219,0.596-0.18,0.834
			c0.04,0.238,0.129,0.439,0.27,0.597c0.14,0.16,0.321,0.278,0.539,0.357c0.221,0.08,0.432,0.12,0.631,0.12h10.326
			c0.398,0,0.79-0.129,1.17-0.389c0.379-0.257,0.65-0.565,0.81-0.924l1.683-3.577c0.159-0.358,0.431-0.665,0.811-0.925
			c0.38-0.259,0.789-0.389,1.229-0.389h12.669c0.397,0,0.789,0.13,1.171,0.389c0.38,0.26,0.668,0.566,0.869,0.925l1.621,3.577
			c0.199,0.358,0.489,0.667,0.871,0.924c0.378,0.26,0.789,0.389,1.229,0.389h10.267c0.194,0,0.362-0.024,0.517-0.061
			c0.129,0.036,0.264,0.061,0.408,0.061h8.987c0.402,0,0.744-0.139,1.027-0.417c0.279-0.279,0.42-0.616,0.42-1.015v-21.35
			c0-0.396,0.132-0.625,0.394-0.686c0.257-0.06,0.507,0.07,0.748,0.388l15.633,21.886c0.241,0.318,0.581,0.596,1.021,0.835
			c0.438,0.238,0.857,0.358,1.258,0.358h8.866c0.399,0,0.739-0.139,1.017-0.417c0.281-0.279,0.422-0.616,0.422-1.015v-40.79
			c0-0.397-0.143-0.735-0.422-1.015C249.798,96.992,249.46,96.853,249.058,96.853z M190.963,123.777
			c-0.182,0.259-0.472,0.388-0.871,0.388h-5.342c-0.44,0-0.741-0.129-0.9-0.388c-0.161-0.257-0.161-0.565,0-0.925l3-7.214
			c0.161-0.359,0.34-0.537,0.541-0.537s0.38,0.178,0.54,0.537c0.483,1.153,0.999,2.396,1.562,3.728
			c0.562,1.331,1.041,2.494,1.441,3.486C191.133,123.212,191.144,123.521,190.963,123.777z"/>
		<path style="fill:#FFFFFF;" d="M294.63,109.912c-1.202-2.742-2.832-5.137-4.895-7.186c-2.062-2.047-4.472-3.667-7.231-4.859
			c-2.761-1.193-5.703-1.79-8.826-1.79s-6.062,0.597-8.823,1.79c-2.762,1.192-5.163,2.812-7.205,4.859
			c-2.039,2.049-3.661,4.443-4.86,7.186c-1.202,2.744-1.803,5.666-1.803,8.767c0,3.102,0.601,6.024,1.803,8.768
			c1.199,2.742,2.821,5.138,4.86,7.186c2.042,2.048,4.443,3.667,7.205,4.859c2.761,1.193,5.7,1.79,8.823,1.79
			s6.065-0.597,8.826-1.79c2.76-1.192,5.17-2.812,7.231-4.859c2.062-2.048,3.692-4.443,4.895-7.186
			c1.202-2.743,1.801-5.666,1.801-8.768C296.431,115.578,295.832,112.656,294.63,109.912z M283.704,122.974
			c-0.563,1.351-1.343,2.544-2.342,3.577c-1.003,1.035-2.16,1.858-3.479,2.474c-1.323,0.618-2.726,0.926-4.205,0.926
			c-1.48,0-2.882-0.308-4.201-0.926c-1.32-0.615-2.474-1.438-3.452-2.474c-0.98-1.033-1.751-2.227-2.312-3.577
			c-0.562-1.352-0.84-2.782-0.84-4.295c0-1.47,0.278-2.893,0.84-4.264c0.561-1.371,1.331-2.564,2.312-3.578
			c0.979-1.014,2.132-1.828,3.452-2.445c1.319-0.616,2.721-0.924,4.201-0.924c1.479,0,2.882,0.308,4.205,0.924
			c1.319,0.617,2.477,1.432,3.479,2.445c0.999,1.014,1.778,2.207,2.342,3.578c0.559,1.371,0.84,2.794,0.84,4.264
			C284.544,120.191,284.263,121.622,283.704,122.974z"/>
	</g>
	<path style="fill:#FFFFFF;" d="M181.653,43.893L163.302,1.435c-0.168-0.374-0.451-0.696-0.849-0.967
		c-0.399-0.271-0.808-0.406-1.226-0.406h-8.801c-0.459,0-0.89,0.135-1.287,0.406c-0.399,0.271-0.683,0.594-0.848,0.967L140.131,25
		c0.048-0.703,0.079-1.416,0.079-2.148c0-3.579-0.587-6.806-1.762-9.678c-1.174-2.873-2.89-5.348-5.153-7.431
		C129.107,1.915,123.72,0,117.142,0H99.983c-0.419,0-0.776,0.146-1.068,0.437c-0.294,0.292-0.441,0.646-0.441,1.062v42.707
		c0,0.417,0.147,0.771,0.441,1.062c0.292,0.292,0.649,0.438,1.068,0.438h16.384c0.446-0.876,0.965-1.705,1.552-2.469
		c0.816-1.067,1.808-1.96,2.943-2.652c1.221-0.745,2.658-1.15,4.27-1.204c0.123-0.004,0.235-0.005,0.346-0.005
		c1.71,0,3.225,0.379,4.501,1.129c0.548,0.323,1.065,0.633,1.552,0.93c0.61-0.438,1.2-0.906,1.763-1.411
		c0.211-0.194,0.414-0.395,0.613-0.596l-1.185,2.747c0.026,0.017,0.055,0.035,0.082,0.051c0.502,0.32,0.87,0.463,1.126,0.523
		c0.113-0.092,0.311-0.285,0.588-0.663c0.517-0.681,1.179-1.158,1.985-1.439c0.445-0.154,0.894-0.232,1.339-0.232
		c0.402,0,0.8,0.064,1.183,0.19l5.259,1.912c0.89,0.353,1.577,0.975,1.988,1.8l0,0l1.756-3.731c0.166-0.375,0.448-0.696,0.848-0.967
		c0.398-0.271,0.826-0.407,1.289-0.407h13.262c0.418,0,0.825,0.136,1.225,0.407c0.398,0.271,0.701,0.593,0.912,0.967l1.696,3.746
		c0.209,0.375,0.513,0.698,0.912,0.968c0.397,0.271,0.825,0.406,1.286,0.406h10.752c0.668,0,1.119-0.208,1.349-0.625
		C181.79,44.664,181.819,44.268,181.653,43.893z M126.665,28.69c-0.651,1.477-1.479,2.622-2.484,3.434
		c-1.004,0.812-2.136,1.363-3.394,1.654c-1.256,0.292-2.473,0.437-3.646,0.437h-4.715c-0.417,0-0.774-0.146-1.067-0.437
		c-0.294-0.291-0.441-0.644-0.441-1.062V13.111c0-0.415,0.146-0.77,0.441-1.061c0.293-0.291,0.649-0.437,1.067-0.437h4.715
		c1.173,0,2.378,0.146,3.616,0.437c1.234,0.292,2.366,0.843,3.392,1.655c1.026,0.812,1.864,1.957,2.515,3.434
		c0.648,1.477,0.975,3.403,0.975,5.775S127.313,27.212,126.665,28.69z M160.505,28.19c-0.189,0.271-0.494,0.406-0.913,0.406H154
		c-0.461,0-0.776-0.135-0.941-0.406c-0.17-0.27-0.17-0.593,0-0.968l3.14-7.555c0.167-0.375,0.356-0.562,0.567-0.562
		c0.209,0,0.396,0.186,0.564,0.562c0.503,1.207,1.048,2.508,1.634,3.903c0.588,1.395,1.091,2.612,1.51,3.652
		C160.683,27.597,160.692,27.92,160.505,28.19z"/>
	<path style="fill:#FFFFFF;" d="M123.32,53.699l-5.522-1.496c-0.419-0.082-0.732-0.311-0.942-0.686
		c-0.209-0.374-0.25-0.749-0.124-1.122c0.292-0.997,0.669-2.015,1.13-3.054c0.457-1.039,1.022-1.995,1.692-2.868
		c0.669-0.873,1.463-1.589,2.383-2.15c0.919-0.561,2.008-0.861,3.264-0.904c1.463-0.041,2.708,0.24,3.733,0.841
		c1.025,0.604,1.945,1.164,2.761,1.684c0.815,0.52,1.568,0.81,2.257,0.872c0.691,0.062,1.432-0.446,2.229-1.526
		c0.251-0.333,0.584-0.571,1.004-0.717c0.417-0.145,0.815-0.155,1.191-0.031l5.145,1.87c0.417,0.167,0.724,0.436,0.91,0.81
		c0.188,0.375,0.219,0.769,0.095,1.184c-0.379,1.081-0.849,2.11-1.413,3.085c-0.565,0.977-1.223,1.839-1.977,2.586
		c-0.753,0.749-1.609,1.34-2.571,1.776c-0.963,0.437-2.031,0.615-3.2,0.53c-1.173-0.083-2.197-0.425-3.075-1.029
		c-0.879-0.601-1.695-1.143-2.447-1.62c-0.753-0.477-1.466-0.706-2.132-0.686c-0.67,0.021-1.379,0.593-2.133,1.713
		c-0.251,0.334-0.586,0.592-1.003,0.78C124.154,53.73,123.738,53.782,123.32,53.699z"/>
	<path style="fill:#FFFFFF;" d="M155.066,92.278l-15.782-36.511c-1.04,0.449-2.17,0.682-3.365,0.682
		c-0.23,0-0.462-0.008-0.702-0.026c-1.537-0.108-2.915-0.575-4.096-1.386c-0.883-0.604-1.664-1.122-2.385-1.578
		c-0.302-0.191-0.575-0.313-0.795-0.352c-0.115,0.099-0.338,0.324-0.652,0.79l-0.062,0.09c-0.46,0.609-1.065,1.087-1.805,1.418
		c-0.56,0.25-1.135,0.376-1.715,0.376c-0.267,0-0.533-0.028-0.795-0.08l-0.066-0.013l-1.418-0.384l-15.862,36.788
		c-0.167,0.332-0.23,0.623-0.191,0.872c0.043,0.248,0.138,0.458,0.284,0.622c0.147,0.168,0.335,0.292,0.565,0.374
		c0.23,0.085,0.45,0.126,0.658,0.126h10.791c0.419,0,0.827-0.136,1.225-0.405c0.396-0.27,0.679-0.592,0.847-0.966l1.757-3.74
		c0.165-0.374,0.449-0.695,0.845-0.966c0.398-0.27,0.827-0.405,1.287-0.405h13.238c0.418,0,0.826,0.136,1.225,0.405
		c0.394,0.271,0.699,0.592,0.908,0.966l1.695,3.74c0.209,0.374,0.511,0.696,0.908,0.966s0.825,0.405,1.287,0.405h10.729
		c0.668,0,1.118-0.208,1.35-0.624C155.201,93.049,155.234,92.653,155.066,92.278z M133.953,76.604
		c-0.188,0.271-0.492,0.404-0.908,0.404h-5.585c-0.461,0-0.774-0.134-0.94-0.404c-0.167-0.271-0.167-0.593,0-0.967l3.138-7.542
		c0.165-0.374,0.352-0.56,0.565-0.56c0.207,0,0.396,0.186,0.563,0.56c0.502,1.205,1.044,2.504,1.632,3.896
		c0.586,1.393,1.087,2.607,1.504,3.646C134.132,76.012,134.142,76.334,133.953,76.604z"/>
</g>
</svg>
